<svg xmlns="http://www.w3.org/2000/svg" version="1.1" viewBox="-5.0 -10.0 110.0 135.0">
 <path d="m74.609 9.707c-15.785 0.56641-29.34 4.2383-40.461 10.957-9.9414 6.0039-15.652 13.59-17.52 23.281-1.4492 7.5234-0.33203 14.941 4.3633 29.004 1.1133 3.3281 2.2812 6.7227 2.5977 7.5391l0.57422 1.4844-1.5547 1.7891-1.5547 1.7852 1.1875 1.3398c1.9102 2.1523 1.5664 2.1641 3.7109-0.125l1.8789-2.0039h3.5156c3.7812 0.003907 9.832-0.25781 13.77-0.58984 7.8477-0.66016 13.039-1.832 18.246-4.125 7.7969-3.4297 13.52-10.82 17.469-22.555 3.8828-11.547 5.0703-24.254 3.832-40.984-0.15625-2.1133-0.69141-6.6016-0.8125-6.793-0.082031-0.13281-5.5781-0.13672-9.2422-0.003907zm-4.3164 15.242c-3.6172 3.6523-8.9492 9.3008-14.031 14.863l-1.8477 2.0195-0.73047-1.5781c-0.65234-1.418-4.6523-9.0039-4.7422-9.0039-0.039062 0 0.1875 2.2578 0.36328 3.6133 0.054687 0.42969 0.19141 1.793 0.30078 3.0273s0.23828 2.5547 0.28906 2.9297c0.12109 0.89844 0.25391 2.1328 0.41016 3.8086 0.070312 0.75 0.16406 1.4258 0.20703 1.4961 0.042969 0.074219-0.94141 1.4219-2.1836 3-1.2422 1.5742-2.8242 3.6055-3.5156 4.5117l-1.2539 1.6445-1.4023-1.9102c-4.5352-6.168-7.9766-10.598-7.9766-10.27 0 0.10547 0.79297 2.293 1.7656 4.8633 0.96875 2.5703 2.3359 6.2617 3.0352 8.207l1.2656 3.5391-1.0312 1.5c-6.375 9.2617-10.984 16.473-13.121 20.527l-0.92578 1.7578 2.9688-3.0273c3.582-3.6523 10.137-10.797 12.008-13.086 0.74609-0.91406 1.4766-1.7852 1.6211-1.9336 0.14453-0.15234 0.61719-0.75 1.0547-1.3281 0.4375-0.58203 0.95313-1.1367 1.1445-1.2383 0.1875-0.10547 1.3164-0.1875 2.5-0.1875 2.1719 0 7.8555-0.30469 10.566-0.5625l1.4648-0.14062-1.3672-0.4375c-6.375-2.0391-9.4023-3.043-9.543-3.168-0.09375-0.082031 0.09375-0.48828 0.41797-0.89844 0.32422-0.41406 2.0547-2.8164 3.8516-5.3398l3.2578-4.5898 1.3008-0.12109c0.71484-0.070312 3.5859-0.13672 6.3789-0.15234 2.793-0.011718 5.1914-0.097656 5.332-0.1875 0.3125-0.19531-2.0078-1.1055-6.5547-2.5664-1.75-0.5625-3.2266-1.1016-3.2852-1.1992-0.058594-0.09375 0.57812-1.1289 1.418-2.2969 0.83984-1.1719 3.5938-5.0117 6.1172-8.5391 2.5234-3.5273 5.4883-7.5781 6.582-9.0039 1.0977-1.4258 1.9766-2.5938 1.9531-2.5938-0.023438 0-1.8516 1.8242-4.0625 4.0508z" fill-rule="evenodd"/>
<text x="0.0" y="117.5" font-size="5.0" font-weight="bold" font-family="Arbeit Regular, Helvetica, Arial-Unicode, Arial, Sans-serif" fill="#000000">Created by Shubham Singh</text><text x="0.0" y="122.5" font-size="5.0" font-weight="bold" font-family="Arbeit Regular, Helvetica, Arial-Unicode, Arial, Sans-serif" fill="#000000">from Noun Project</text></svg>