<svg xmlns="http://www.w3.org/2000/svg">
  <defs>
    <!-- 1) Vegetarian icon -->
    <symbol id="icon-vegetarian" viewBox="-5.0 -10.0 110.0 135.0">
      <g>
        <path d="m74.609 9.707c-15.785 0.56641-29.34 4.2383-40.461 10.957-9.9414 6.0039-15.652 13.59-17.52 23.281-1.4492 7.5234-0.33203 14.941 4.3633 29.004 1.1133 3.3281 2.2812 6.7227 2.5977 7.5391l0.57422 1.4844-1.5547 1.7891-1.5547 1.7852 1.1875 1.3398c1.9102 2.1523 1.5664 2.1641 3.7109-0.125l1.8789-2.0039h3.5156c3.7812 0.003907 9.832-0.25781 13.77-0.58984 7.8477-0.66016 13.039-1.832 18.246-4.125 7.7969-3.4297 13.52-10.82 17.469-22.555 3.8828-11.547 5.0703-24.254 3.832-40.984-0.15625-2.1133-0.69141-6.6016-0.8125-6.793-0.082031-0.13281-5.5781-0.13672-9.2422-0.003907zm-4.3164 15.242c-3.6172 3.6523-8.9492 9.3008-14.031 14.863l-1.8477 2.0195-0.73047-1.5781c-0.65234-1.418-4.6523-9.0039-4.7422-9.0039-0.039062 0 0.1875 2.2578 0.36328 3.6133 0.054687 0.42969 0.19141 1.793 0.30078 3.0273s0.23828 2.5547 0.28906 2.9297c0.12109 0.89844 0.25391 2.1328 0.41016 3.8086 0.070312 0.75 0.16406 1.4258 0.20703 1.4961 0.042969 0.074219-0.94141 1.4219-2.1836 3-1.2422 1.5742-2.8242 3.6055-3.5156 4.5117l-1.2539 1.6445-1.4023-1.9102c-4.5352-6.168-7.9766-10.598-7.9766-10.27 0 0.10547 0.79297 2.293 1.7656 4.8633 0.96875 2.5703 2.3359 6.2617 3.0352 8.207l1.2656 3.5391-1.0312 1.5c-6.375 9.2617-10.984 16.473-13.121 20.527l-0.92578 1.7578 2.9688-3.0273c3.582-3.6523 10.137-10.797 12.008-13.086 0.74609-0.91406 1.4766-1.7852 1.6211-1.9336 0.14453-0.15234 0.61719-0.75 1.0547-1.3281 0.4375-0.58203 0.95313-1.1367 1.1445-1.2383 0.1875-0.10547 1.3164-0.1875 2.5-0.1875 2.1719 0 7.8555-0.30469 10.566-0.5625l1.4648-0.14062-1.3672-0.4375c-6.375-2.0391-9.4023-3.043-9.543-3.168-0.09375-0.082031 0.09375-0.48828 0.41797-0.89844 0.32422-0.41406 2.0547-2.8164 3.8516-5.3398l3.2578-4.5898 1.3008-0.12109c0.71484-0.070312 3.5859-0.13672 6.3789-0.15234 2.793-0.011718 5.1914-0.097656 5.332-0.1875 0.3125-0.19531-2.0078-1.1055-6.5547-2.5664-1.75-0.5625-3.2266-1.1016-3.2852-1.1992-0.058594-0.09375 0.57812-1.1289 1.418-2.2969 0.83984-1.1719 3.5938-5.0117 6.1172-8.5391 2.5234-3.5273 5.4883-7.5781 6.582-9.0039 1.0977-1.4258 1.9766-2.5938 1.9531-2.5938-0.023438 0-1.8516 1.8242-4.0625 4.0508z" fill-rule="evenodd"/>
      </g>
    </symbol>

    <!-- 2) Meat icon -->
    <symbol id="icon-meat" viewBox="-5.0 -10.0 110.0 135.0">
      <g>
        <path d="m16.191 26.895c4.5195-8.1172 10.75-15.703 19.246-18.602 7.4141 5.3008 11.371 12.781 5.9141 20.719-3.2109 4.668-6.7148 5.0898-5.3711 6.9414 0.42969 0.59375 1.2578 0.72656 1.8516 0.29688 10.797-7.8164 12.027-19.746 0.85547-28.809 11.594-2.1484 23.824 4.8438 33.824 13.117 0.54297 0.44922 1.3438 0.39453 1.8164-0.11719 4.7305-4.8281 10.742-7.2227 18.41-10.559-0.77734 6.1055-4.3008 13.461-9.0508 16.164-0.89453 0.50781-0.89453 1.8008 0.011719 2.3086 5.7539 3.2344 6.5859 9.4023 6.6406 17.805-4.957-4.4336-12.078-6.832-15.871-12.629-0.4375-0.66797-1.3555-0.80078-1.9727-0.28125-16.562 13.902-35.375 20.59-50.414 2.4023-2.1172-2.5586-4.0742-5.4961-5.8906-8.7578zm65.754 46.504c-0.16406 1.7344-2.8008 1.4844-2.6367-0.25 0.74219-7.8086-7.7852-9.6953-14.605-8.9648-1.7305 0.1875-2.0156-2.4492-0.28125-2.6367 8.5742-0.91797 18.457 2.1484 17.523 11.852zm-52.055 6.3242c0 2.6797 0.50781 4.8672 3.2422 6.3438 9.2852 4.9922 22.527 9.5195 32.785 9.5195 10.844 0 21.328-4.4375 24.328-15.004 2.3477-8.2617-0.23828-17.469-7.8516-22.434-13.875-9.0469-35.68-2.2695-49.258 5.0312-2.0195 1.0859-3.2383 3.0703-3.2383 5.3633h-0.003907v0.98047h-12.898c-0.097656-1.5742-0.77734-2.9961-1.8281-4.043l-0.003907 0.003906c-1.1406-1.1406-2.7109-1.8438-4.4414-1.8438-5.7656 0-8.4844 7.1562-4.1641 10.988-2.7031 2.3984-2.8516 6.5703-0.27344 9.1445 3.832 3.8281 10.375 1.3125 10.711-4.043l12.895-0.003907zm0-7.5469v4.8906h-14.301c-1.4062 0-1.3125 1.2539-1.2539 1.9102 0.45312 4.9883-7.2461 5.3516-7.2461 0.34766 0-3.8164 4.0508-2.9102 3.3086-5.1211-0.38672-1.1562-1.4961-0.57812-2.6328-2.1602-2.4375-3.3867 2.0078-7.8516 5.5234-4.6875l-0.003906 0.003906c2.1016 2.1016-0.0625 4.8203 2.3047 4.8203v0.003906zm22.738 18.773c9.1797 2.6055 19.91 3.1211 27.594-1.5 6.5117-3.918 9.1406-10.945 7.8867-18.242-2.3789-13.812-18.191-16.145-30.66-13.992-7.2852 1.2578-16.645 4.8477-23.059 8.2969-1.1719 0.62891-1.8477 1.7031-1.8477 3.0312h0.003906v12.16c0 1.332 0.66797 2.3984 1.8438 3.0312 5.2969 2.8477 12.441 5.5703 18.238 7.2148zm-20.27-72.141c-1.2969 1.0977 0.31641 3.0898 1.6602 2.0664 1.3047 0.85938 2.7812-0.90625 1.6719-2.0352-1.7734-1.8008-1.8281-1.3047-3.332-0.03125zm-12.324-2.3594c-2.3477 2.8398-4.5156 6.1289-6.5117 9.8008-0.21094 0.38281-0.23047 0.86328-0.003907 1.2773 14.855 27.301 35.949 27.66 59.578 8.6484 4.9844 6.4492 13.34 8.707 17.477 14.09 0.75391 0.97656 2.3398 0.47266 2.3711-0.77734 0.24609-9.8945-0.44922-18.133-6.2227-22.34 5.3242-4.3281 8.4102-11.977 8.8359-19.238 0.082031-1.1016-0.98047-1.7383-1.8555-1.3516-8.4844 3.7383-14.621 5.8672-20.414 11.211-17.773-14.371-37.469-20.406-53.254-1.3203z" fill-rule="evenodd"/>
      </g>
    </symbol>
  </defs>
</svg>
